<svg xmlns="http://www.w3.org/2000/svg" xml:space="preserve" id="レイヤー_1" x="0" y="0" version="1.1" viewBox="0 0 90 90"><style>.st0{fill:#102830}</style><path d="M47.56 16.24c-1.46-.61-3.06-.92-4.82-.92-1.69 0-3.08.31-4.19.92a8.6 8.6 0 0 0-2.81 2.47c-.77 1.03-1.36 2.2-1.78 3.5s-.75 2.6-.98 3.91l-1.03 6.09H44.8L42.39 46H29.75l-7.7 43.43H4.02L11.72 46H1.26l2.41-13.79h10.11l1.15-5.86c.61-3.29 1.49-6.51 2.64-9.65s2.78-5.92 4.88-8.33c2.11-2.41 4.77-4.35 7.98-5.8C33.65 1.12 37.59.39 42.26.39c1.53 0 3.06.1 4.6.29 1.53.19 2.87.48 4.02.86zM85.84 46.06H50.52l2.68-13.73h35.32z" class="st0"/><path d="M81.87 67.44H35.2l2.59-13.72h46.68zM77.21 89.14H31.37l2.7-13.72h45.84z" class="st0"/></svg>