<svg xmlns="http://www.w3.org/2000/svg" width="242" height="51" fill="none"><path fill="#1E2C58" d="M89.982 22.773h1.837v-7.046l.56-.38q.266-.215.265-.425c0-.362-.426-.812-1.752-1.856l-.091-.072-.947 1.092h-5.728a2 2 0 0 0-.296-.094l-.042-.009q-.123-.046-.233-.083a3 3 0 0 1-.294-.11 10 10 0 0 0-.565-.168l-.486-.136-.154-.045v25.292h1.892V22.17h6.032v.606zm0-3.962v1.823H83.95v-1.823zm-6.03-1.534v-1.659h6.031v1.659z" style="fill:#1e2c58;fill:color(display-p3 .1176 .1725 .3451);fill-opacity:1"/><path fill="#1E2C58" d="m103.852 13.094-.088-.07-.975 1.063h-6.06c-.998-.378-1.422-.52-1.812-.604l-.148-.031v9.24h.882c-.335 1.055-.943 2.407-1.573 3.501h-2.421c.35-.231.522-.518.522-.87 0-.88-1.148-1.93-3.07-2.806l-.083-.038-.721.825.1.08c1.004.785 1.558 1.525 1.746 2.328.05.195.1.355.175.483h-3.739l.397 1.424h5.365v2.18h-6.836l.454 1.561h6.216c-.538 2.404-2.667 4.123-6.013 4.853l-.151.033.635 1.27.095-.023c3.584-.904 5.73-2.28 6.738-4.327 1.66.911 2.996 2.038 3.869 3.266.22.274.418.457.672.457.512 0 1.194-.664 1.194-1.165 0-1.003-2.018-2.461-5.147-3.718l-.141-.047c.059-.234.102-.412.144-.599h6.798l.516-.933-.056-.064c-.544-.627-.982-1.071-1.861-1.75l-.087-.068-1.196 1.252h-4.009v-2.179h5.731l.425-.849-.044-.06c-.398-.54-.797-.962-1.42-1.503l-.342-.305-1.062 1.292h-1.823c.424-.486 1.013-1.194 1.292-1.662.593-.046 1.176-.154 1.176-.556 0-.247-.219-.613-1.833-1.283h.291v-.523h6.362v13.388c0 .53-.105.623-.705.623-1.155 0-2.285-.086-2.759-.163l-.141-.025v1.264l.102.016c2.056.339 2.397.59 2.375 1.17l-.005.127.128-.003c2.139-.027 2.898-.562 2.898-2.046V15.897l.612-.384c.153-.114.24-.26.24-.399 0-.414-.497-.962-1.835-2.02zm-.911 5.717v1.823H96.58v-1.823zm-6.361-1.534v-1.659h6.361v1.659zM113.428 17.784c.085.338.237.723.667.723.648 0 1.359-.639 1.359-1.221 0-.98-1.126-2.162-3.09-3.243l-.087-.046-.78.916.102.076c.855.641 1.556 1.712 1.826 2.793zM120.511 18.546l.075-.069a17.3 17.3 0 0 0 2.293-2.527c.888-.012 1.077-.281 1.077-.506 0-.432-.729-.951-2.166-1.542l-.111-.046-.046.112c-.608 1.476-1.317 2.805-1.995 3.744l-.068.095zM136.961 36.635a18.5 18.5 0 0 1-6.352-5.57c1.672-2.96 2.757-6.603 3.139-10.54l.012-.09h2.366l.45-.933-.045-.059c-.668-.89-.993-1.245-1.941-2.109l-.096-.087-1.281 1.653h-5.915c.338-1.167.611-2.22.96-3.933.741-.178 1.229-.38 1.229-.76 0-.32-.338-.745-2.961-1.193l-.125-.021-.016.124c-.762 5.715-1.929 9.596-3.78 12.581l-.059.096 1.094.795.072-.095c.769-1.008 1.326-1.937 1.923-3.232.609 2.898 1.579 5.571 2.818 7.752-1.797 2.783-4.333 5.229-6.795 6.555l-.126.067.836 1.072.087-.042c2.655-1.26 5.298-3.458 7.099-5.9 1.536 2.189 3.347 3.977 5.684 5.615l.093.064.07-.089c.602-.744.998-1.126 1.571-1.514l.165-.113zm-5.224-16.2c-.299 3.087-1.083 6.123-2.274 8.803-1.347-2.386-2.334-5.241-2.861-8.277.048-.114.068-.175.117-.325l.066-.201h4.953z" style="fill:#1e2c58;fill:color(display-p3 .1176 .1725 .3451);fill-opacity:1"/><path fill="#1E2C58" d="M122.552 35.777c0-.55-.703-1.133-2.421-2.001.776-1.184 1.415-2.67 1.952-4.537h2.211l.484-.937-.055-.061c-.716-.799-1.127-1.184-1.833-1.723l-.089-.066-1.113 1.226h-4.639l.105-.268c.762-.149 1.132-.363 1.132-.657 0-.405-.642-.746-2.289-1.215l-.105-.03-.118.304c-.272.7-.438 1.131-.768 1.867h-4.379l.488 1.562h3.171c-.587 1.198-1.361 2.528-2.247 3.856l-.075.113 1.62.856.553-.859.195-.28c1.308.466 2.399.937 3.173 1.369-1.601 1.683-3.674 2.669-6.512 3.098l-.171.025.704 1.272.084-.014c3.339-.545 5.854-1.708 7.482-3.453.709.505 1.224.955 1.708 1.487.24.27.407.37.614.37.468 0 1.138-.766 1.138-1.303zm-7.558-3.979a30 30 0 0 0 1.353-2.56h3.643c-.382 1.404-.901 2.663-1.543 3.746-1.004-.407-1.992-.748-3.455-1.187z" style="fill:#1e2c58;fill:color(display-p3 .1176 .1725 .3451);fill-opacity:1"/><path fill="#1E2C58" d="M111.455 25.896c1.935-1.008 3.827-2.454 5.354-4.089v3.774h1.81v-3.525c1.161.622 2.123 1.441 2.729 2.323.223.28.391.431.645.431.48 0 1.167-.735 1.167-1.248 0-.937-1.401-1.805-4.541-2.812v-.506h5.261l.511-.928-.046-.063c-.554-.749-.864-1.088-1.586-1.726l-.096-.085-1.033 1.322h-3.012V14.81c.615-.252 1.018-.493 1.018-.825 0-.477-.808-.719-2.701-.809l-.128-.005v5.592h-5.896l.396 1.479h4.411c-1.516 1.924-3.309 3.55-5.068 4.591l-.12.07.838 1.038.089-.046zM158.348 16.463c.759-.291 1.128-.58 1.128-.883 0-.645-1.576-.78-2.899-.78h-.122v10.202h1.893z" style="fill:#1e2c58;fill:color(display-p3 .1176 .1725 .3451);fill-opacity:1"/><path fill="#1E2C58" d="M157.666 26.624v1.282l.108.012c3.03.312 3.349.512 3.304 1.166l-.009.136.137-.008c2.023-.112 2.73-.6 2.701-1.854V15.555c.75-.302 1.073-.568 1.073-.88 0-.311-.3-.763-2.892-.917l-.128-.008v12.454c0 .474-.063.567-.787.567-.875 0-1.916-.041-3.377-.137l-.129-.01zM166.324 36.906c-.656-.733-1.173-1.212-2.133-1.966l-.084-.066-1.499 1.47h-8.304V32.98h9.171l.455-.908-.053-.06c-.82-.963-1.231-1.369-1.998-1.971l-.087-.068-1.416 1.473h-6.073v-1.724c.799-.322 1.128-.579 1.128-.88 0-.322-.306-.759-2.952-.835l-.125-.004v3.443h-8.983l.456 1.534h8.526v3.364H140.48l.485 1.617h24.868l.543-.99-.057-.065z" style="fill:#1e2c58;fill:color(display-p3 .1176 .1725 .3451);fill-opacity:1"/><path fill="#1E2C58" d="m140.845 20.826.424 1.534h3.321c-.16 3.098-1.276 5.332-3.408 6.824l-.103.073.802 1.038.092-.052c2.922-1.695 4.375-4.2 4.566-7.881h3.285v7.236h1.893v-7.236h3.447l.508-.984-.043-.06c-.542-.741-.968-1.19-1.665-1.86l-.095-.09-1.201 1.46h-.95V16.39h2.894l.541-.956-.049-.065c-.584-.75-.948-1.114-1.862-1.862l-.093-.075-1.195 1.423h-10.607l.359 1.534h2.919v4.438h-3.78zm5.728 0v-4.437h3.252v4.437zM183.387 30.894l-.083-3.976v-.192c4.926-.479 6.356-.876 6.356-1.761 0-.647-1.02-1.304-2.019-1.304-.36 0-.741.121-1.164.375-.566.351-1.698.66-3.2.871l-.082-3.574v-.085c2.622-.274 5.131-.65 5.995-.9.662-.212 1.02-.425 1.02-.941 0-.655-1.008-1.275-2.074-1.275-.348 0-.837.069-1.161.262-.527.302-1.314.583-2.063.733-.279.076-1.131.247-1.746.335.005-1.485.08-2.533.213-2.956.08-.212.117-.441.117-.702 0-.963-1.176-1.689-2.734-1.689-.387 0-.812.054-1.293.168l-.077.02-.205 1.097.144.003c1.536.026 1.78.226 1.752 2.906v1.406c-1.008.113-2.27.181-3.483.181-2.192 0-3.491-.405-4.482-1.396l-.108-.108-.74 1.175.074.07c1.555 1.445 3.09 1.957 5.86 1.957a29 29 0 0 0 2.909-.153c.022 1.247.061 2.414.09 3.274l.015.443c-1.044.075-2.315.13-3.068.13-2.049 0-3.082-.325-4.099-1.287l-.116-.109-.609 1.148.054.063c1.118 1.287 2.817 1.883 5.346 1.883.834 0 1.805-.028 2.52-.073l.165 3.558v.052c-1.198-.18-2.058-.256-2.85-.256-3.9 0-6.229 1.393-6.229 3.725 0 2.158 2.586 3.724 6.147 3.724 1.354 0 2.73-.355 3.591-.928.942-.657 1.399-1.688 1.399-3.153 0-.14 0-.312-.027-.468v-.242c2.087.753 3.863 1.63 5.424 2.682.771.522.858.57 1.416.57.678 0 1.085-.395 1.085-1.056 0-1.518-2.832-3.017-7.979-4.223zm-5.322.959c.987 0 2.131.157 3.4.468v.29c0 2.692-.544 3.238-3.235 3.238-2.441 0-4.145-.79-4.145-1.916 0-1.243 1.599-2.08 3.978-2.08zM211.247 18.296c-2.523 0-4.927.589-9.892 2.427-2.235.846-2.265.846-2.765.846-.499 0-.915-.235-1.218-.716l-.081-.128-.967.968.042.08c.898 1.711 1.687 2.347 2.913 2.347.507 0 .693-.056 1.243-.373 2.898-1.646 4.137-2.26 5.76-2.854 1.844-.678 3.684-1.066 5.049-1.066 3.137 0 5.327 2.079 5.327 5.052 0 4.614-3.075 6.849-11.345 8.245l-.168.029.755 1.377.081-.01c9.025-1.17 13.23-4.165 13.23-9.42 0-3.944-3.35-6.806-7.962-6.806zM232.253 24.818l-.816-.952-1.93 2.45c-.009-.203-.009-.339-.009-.528 0-1.93.697-4.725 1.522-6.099.414-.662.54-1.017.54-1.521 0-1.066-.802-2.053-2.452-3.02l-.074-.043-.994.828.097.093c.596.567.816 1.029.816 1.703 0 .492-.064 1.039-.383 2.256-.677 2.88-.882 4.243-.882 5.832 0 1.837.384 3.307 1.182 4.506.262.313.459.484.754.484.693 0 .759-.828.78-1.102.108-1.697.661-3.18 1.795-4.811zM241.022 16.398c-.4-1.261-1.143-1.9-2.206-1.9-.701 0-1.287.245-1.845.777l-.062.058.512 1.126.121-.097c.248-.198.467-.276.779-.276.276 0 .483.137.651.816.247 1.046.466 4.311.466 6.988 0 7.286-2.316 10.956-8.257 13.094l-.141.051.733 1.166.086-.025c3.48-.948 5.587-2.235 7.272-4.444 1.83-2.36 2.721-5.427 2.721-9.375 0-3.06-.357-6.483-.83-7.96z" style="fill:#1e2c58;fill:color(display-p3 .1176 .1725 .3451);fill-opacity:1"/><path fill="url(#a)" d="M37.983.462h8.734a3.744 3.744 0 0 1 3.744 3.744v6.238a2.496 2.496 0 0 1-2.496 2.496h-7.487a2.496 2.496 0 0 1-2.495-2.495z"/><path fill="url(#b)" d="M25.506 12.939h9.982a2.496 2.496 0 0 1 2.496 2.496v7.487a2.496 2.496 0 0 1-2.496 2.496h-9.982V12.939"/><path fill="url(#c)" d="M40.479 25.418h7.486a2.496 2.496 0 0 1 2.496 2.496v6.238a3.744 3.744 0 0 1-3.744 3.744h-8.734v-9.983a2.496 2.496 0 0 1 2.496-2.495"/><path fill="url(#d)" d="M21.762 12.939a3.744 3.744 0 0 0 3.744-3.744V.461H13.028C6.139.46.551 6.047.551 12.938V50.37H13.03V37.893h8.734a3.744 3.744 0 0 0 3.744-3.744v-4.99a3.744 3.744 0 0 0-3.744-3.744h-8.735V12.938h8.735z"/><path fill="url(#e)" d="M25.506 37.895h9.982a2.496 2.496 0 0 1 2.496 2.496v9.982H25.507V37.896z"/><path fill="#CE3F3D" d="M62.938 19.178a6.239 6.239 0 1 0-12.477 0 6.239 6.239 0 0 0 12.477 0" style="fill:#ce3f3d;fill:color(display-p3 .8078 .2471 .2392);fill-opacity:1"/><defs><linearGradient id="a" x1="18.023" x2="72.813" y1="-19.133" y2="35.657" gradientUnits="userSpaceOnUse"><stop stop-color="#F4DA0B" style="stop-color:#f4da0b;stop-color:color(display-p3 .9569 .8549 .0431);stop-opacity:1"/><stop offset=".18" stop-color="#EEB756" style="stop-color:#eeb756;stop-color:color(display-p3 .9333 .7176 .3373);stop-opacity:1"/><stop offset=".4" stop-color="#E26264" style="stop-color:#e26264;stop-color:color(display-p3 .8863 .3843 .3922);stop-opacity:1"/><stop offset=".6" stop-color="#D26058" style="stop-color:#d26058;stop-color:color(display-p3 .8235 .3765 .3451);stop-opacity:1"/><stop offset=".78" stop-color="#745BA2" style="stop-color:#745ba2;stop-color:color(display-p3 .4549 .3569 .6353);stop-opacity:1"/><stop offset="1" stop-color="#5352A0" style="stop-color:#5352a0;stop-color:color(display-p3 .3255 .3216 .6275);stop-opacity:1"/></linearGradient><linearGradient id="b" x1="5.362" x2="60.153" y1="-6.473" y2="48.316" gradientUnits="userSpaceOnUse"><stop stop-color="#F4DA0B" style="stop-color:#f4da0b;stop-color:color(display-p3 .9569 .8549 .0431);stop-opacity:1"/><stop offset=".18" stop-color="#EEB756" style="stop-color:#eeb756;stop-color:color(display-p3 .9333 .7176 .3373);stop-opacity:1"/><stop offset=".4" stop-color="#E26264" style="stop-color:#e26264;stop-color:color(display-p3 .8863 .3843 .3922);stop-opacity:1"/><stop offset=".6" stop-color="#D26058" style="stop-color:#d26058;stop-color:color(display-p3 .8235 .3765 .3451);stop-opacity:1"/><stop offset=".78" stop-color="#745BA2" style="stop-color:#745ba2;stop-color:color(display-p3 .4549 .3569 .6353);stop-opacity:1"/><stop offset="1" stop-color="#5352A0" style="stop-color:#5352a0;stop-color:color(display-p3 .3255 .3216 .6275);stop-opacity:1"/></linearGradient><linearGradient id="c" x1="5.362" x2="60.153" y1="-6.472" y2="48.316" gradientUnits="userSpaceOnUse"><stop stop-color="#F4DA0B" style="stop-color:#f4da0b;stop-color:color(display-p3 .9569 .8549 .0431);stop-opacity:1"/><stop offset=".18" stop-color="#EEB756" style="stop-color:#eeb756;stop-color:color(display-p3 .9333 .7176 .3373);stop-opacity:1"/><stop offset=".4" stop-color="#E26264" style="stop-color:#e26264;stop-color:color(display-p3 .8863 .3843 .3922);stop-opacity:1"/><stop offset=".6" stop-color="#D26058" style="stop-color:#d26058;stop-color:color(display-p3 .8235 .3765 .3451);stop-opacity:1"/><stop offset=".78" stop-color="#745BA2" style="stop-color:#745ba2;stop-color:color(display-p3 .4549 .3569 .6353);stop-opacity:1"/><stop offset="1" stop-color="#5352A0" style="stop-color:#5352a0;stop-color:color(display-p3 .3255 .3216 .6275);stop-opacity:1"/></linearGradient><linearGradient id="d" x1="-6.749" x2="48.04" y1="5.64" y2="60.429" gradientUnits="userSpaceOnUse"><stop stop-color="#F4DA0B" style="stop-color:#f4da0b;stop-color:color(display-p3 .9569 .8549 .0431);stop-opacity:1"/><stop offset=".18" stop-color="#EEB756" style="stop-color:#eeb756;stop-color:color(display-p3 .9333 .7176 .3373);stop-opacity:1"/><stop offset=".4" stop-color="#E26264" style="stop-color:#e26264;stop-color:color(display-p3 .8863 .3843 .3922);stop-opacity:1"/><stop offset=".6" stop-color="#D26058" style="stop-color:#d26058;stop-color:color(display-p3 .8235 .3765 .3451);stop-opacity:1"/><stop offset=".78" stop-color="#745BA2" style="stop-color:#745ba2;stop-color:color(display-p3 .4549 .3569 .6353);stop-opacity:1"/><stop offset="1" stop-color="#5352A0" style="stop-color:#5352a0;stop-color:color(display-p3 .3255 .3216 .6275);stop-opacity:1"/></linearGradient><linearGradient id="e" x1="-7.115" x2="47.674" y1="6.006" y2="60.795" gradientUnits="userSpaceOnUse"><stop stop-color="#F4DA0B" style="stop-color:#f4da0b;stop-color:color(display-p3 .9569 .8549 .0431);stop-opacity:1"/><stop offset=".18" stop-color="#EEB756" style="stop-color:#eeb756;stop-color:color(display-p3 .9333 .7176 .3373);stop-opacity:1"/><stop offset=".4" stop-color="#E26264" style="stop-color:#e26264;stop-color:color(display-p3 .8863 .3843 .3922);stop-opacity:1"/><stop offset=".6" stop-color="#D26058" style="stop-color:#d26058;stop-color:color(display-p3 .8235 .3765 .3451);stop-opacity:1"/><stop offset=".78" stop-color="#745BA2" style="stop-color:#745ba2;stop-color:color(display-p3 .4549 .3569 .6353);stop-opacity:1"/><stop offset="1" stop-color="#5352A0" style="stop-color:#5352a0;stop-color:color(display-p3 .3255 .3216 .6275);stop-opacity:1"/></linearGradient></defs></svg>