<svg width="520" height="417" viewBox="0 0 520 417" fill="none" xmlns="http://www.w3.org/2000/svg">
<path d="M311.71 0.5H384.51C401.74 0.5 415.71 14.47 415.71 31.7V83.7C415.71 95.19 406.4 104.5 394.91 104.5H332.51C321.02 104.5 311.71 95.19 311.71 83.7V0.5Z" fill="url(#paint0_linear_69_2)" style=""/>
<path d="M207.71 104.5H290.91C302.4 104.5 311.71 113.81 311.71 125.3V187.7C311.71 199.19 302.4 208.5 290.91 208.5H207.71V104.5Z" fill="url(#paint1_linear_69_2)" style=""/>
<path d="M332.51 208.5H394.91C406.4 208.5 415.71 217.81 415.71 229.3V281.3C415.71 298.53 401.74 312.5 384.51 312.5H311.71V229.3C311.71 217.81 321.02 208.5 332.51 208.5Z" fill="url(#paint2_linear_69_2)" style=""/>
<path d="M176.51 104.5C193.74 104.5 207.71 90.53 207.71 73.3V0.5H103.71C46.27 0.5 -0.289978 47.06 -0.289978 104.5V416.5H103.71V312.5H176.51C193.74 312.5 207.71 298.53 207.71 281.3V239.7C207.71 222.47 193.74 208.5 176.51 208.5H103.71V104.5H176.51Z" fill="url(#paint3_linear_69_2)" style=""/>
<path d="M207.71 312.5H290.91C302.4 312.5 311.71 321.81 311.71 333.3V416.5H207.71V312.5Z" fill="url(#paint4_linear_69_2)" style=""/>
<path d="M519.71 156.5C519.71 127.781 496.429 104.5 467.71 104.5C438.991 104.5 415.71 127.781 415.71 156.5C415.71 185.219 438.991 208.5 467.71 208.5C496.429 208.5 519.71 185.219 519.71 156.5Z" fill="#CE3F3D" style="fill:#CE3F3D;fill:color(display-p3 0.8078 0.2471 0.2392);fill-opacity:1;"/>
<defs>
<linearGradient id="paint0_linear_69_2" x1="145.34" y1="-162.82" x2="602.01" y2="293.85" gradientUnits="userSpaceOnUse">
<stop stop-color="#F4DA0B" style="stop-color:#F4DA0B;stop-color:color(display-p3 0.9569 0.8549 0.0431);stop-opacity:1;"/>
<stop offset="0.18" stop-color="#EEB756" style="stop-color:#EEB756;stop-color:color(display-p3 0.9333 0.7176 0.3373);stop-opacity:1;"/>
<stop offset="0.4" stop-color="#E26264" style="stop-color:#E26264;stop-color:color(display-p3 0.8863 0.3843 0.3922);stop-opacity:1;"/>
<stop offset="0.6" stop-color="#D26058" style="stop-color:#D26058;stop-color:color(display-p3 0.8235 0.3765 0.3451);stop-opacity:1;"/>
<stop offset="0.78" stop-color="#745BA2" style="stop-color:#745BA2;stop-color:color(display-p3 0.4549 0.3569 0.6353);stop-opacity:1;"/>
<stop offset="1" stop-color="#5352A0" style="stop-color:#5352A0;stop-color:color(display-p3 0.3255 0.3216 0.6275);stop-opacity:1;"/>
</linearGradient>
<linearGradient id="paint1_linear_69_2" x1="39.82" y1="-57.3" x2="496.49" y2="399.37" gradientUnits="userSpaceOnUse">
<stop stop-color="#F4DA0B" style="stop-color:#F4DA0B;stop-color:color(display-p3 0.9569 0.8549 0.0431);stop-opacity:1;"/>
<stop offset="0.18" stop-color="#EEB756" style="stop-color:#EEB756;stop-color:color(display-p3 0.9333 0.7176 0.3373);stop-opacity:1;"/>
<stop offset="0.4" stop-color="#E26264" style="stop-color:#E26264;stop-color:color(display-p3 0.8863 0.3843 0.3922);stop-opacity:1;"/>
<stop offset="0.6" stop-color="#D26058" style="stop-color:#D26058;stop-color:color(display-p3 0.8235 0.3765 0.3451);stop-opacity:1;"/>
<stop offset="0.78" stop-color="#745BA2" style="stop-color:#745BA2;stop-color:color(display-p3 0.4549 0.3569 0.6353);stop-opacity:1;"/>
<stop offset="1" stop-color="#5352A0" style="stop-color:#5352A0;stop-color:color(display-p3 0.3255 0.3216 0.6275);stop-opacity:1;"/>
</linearGradient>
<linearGradient id="paint2_linear_69_2" x1="39.82" y1="-57.3" x2="496.49" y2="399.37" gradientUnits="userSpaceOnUse">
<stop stop-color="#F4DA0B" style="stop-color:#F4DA0B;stop-color:color(display-p3 0.9569 0.8549 0.0431);stop-opacity:1;"/>
<stop offset="0.18" stop-color="#EEB756" style="stop-color:#EEB756;stop-color:color(display-p3 0.9333 0.7176 0.3373);stop-opacity:1;"/>
<stop offset="0.4" stop-color="#E26264" style="stop-color:#E26264;stop-color:color(display-p3 0.8863 0.3843 0.3922);stop-opacity:1;"/>
<stop offset="0.6" stop-color="#D26058" style="stop-color:#D26058;stop-color:color(display-p3 0.8235 0.3765 0.3451);stop-opacity:1;"/>
<stop offset="0.78" stop-color="#745BA2" style="stop-color:#745BA2;stop-color:color(display-p3 0.4549 0.3569 0.6353);stop-opacity:1;"/>
<stop offset="1" stop-color="#5352A0" style="stop-color:#5352A0;stop-color:color(display-p3 0.3255 0.3216 0.6275);stop-opacity:1;"/>
</linearGradient>
<linearGradient id="paint3_linear_69_2" x1="-61.13" y1="43.66" x2="395.53" y2="500.32" gradientUnits="userSpaceOnUse">
<stop stop-color="#F4DA0B" style="stop-color:#F4DA0B;stop-color:color(display-p3 0.9569 0.8549 0.0431);stop-opacity:1;"/>
<stop offset="0.18" stop-color="#EEB756" style="stop-color:#EEB756;stop-color:color(display-p3 0.9333 0.7176 0.3373);stop-opacity:1;"/>
<stop offset="0.4" stop-color="#E26264" style="stop-color:#E26264;stop-color:color(display-p3 0.8863 0.3843 0.3922);stop-opacity:1;"/>
<stop offset="0.6" stop-color="#D26058" style="stop-color:#D26058;stop-color:color(display-p3 0.8235 0.3765 0.3451);stop-opacity:1;"/>
<stop offset="0.78" stop-color="#745BA2" style="stop-color:#745BA2;stop-color:color(display-p3 0.4549 0.3569 0.6353);stop-opacity:1;"/>
<stop offset="1" stop-color="#5352A0" style="stop-color:#5352A0;stop-color:color(display-p3 0.3255 0.3216 0.6275);stop-opacity:1;"/>
</linearGradient>
<linearGradient id="paint4_linear_69_2" x1="-64.18" y1="46.7" x2="392.49" y2="503.37" gradientUnits="userSpaceOnUse">
<stop stop-color="#F4DA0B" style="stop-color:#F4DA0B;stop-color:color(display-p3 0.9569 0.8549 0.0431);stop-opacity:1;"/>
<stop offset="0.18" stop-color="#EEB756" style="stop-color:#EEB756;stop-color:color(display-p3 0.9333 0.7176 0.3373);stop-opacity:1;"/>
<stop offset="0.4" stop-color="#E26264" style="stop-color:#E26264;stop-color:color(display-p3 0.8863 0.3843 0.3922);stop-opacity:1;"/>
<stop offset="0.6" stop-color="#D26058" style="stop-color:#D26058;stop-color:color(display-p3 0.8235 0.3765 0.3451);stop-opacity:1;"/>
<stop offset="0.78" stop-color="#745BA2" style="stop-color:#745BA2;stop-color:color(display-p3 0.4549 0.3569 0.6353);stop-opacity:1;"/>
<stop offset="1" stop-color="#5352A0" style="stop-color:#5352A0;stop-color:color(display-p3 0.3255 0.3216 0.6275);stop-opacity:1;"/>
</linearGradient>
</defs>
</svg>
