<svg xmlns="http://www.w3.org/2000/svg" width="520" height="417" fill="none"><path fill="url(#a)" d="M311.71.5h72.8c17.23 0 31.2 13.97 31.2 31.2v52c0 11.49-9.31 20.8-20.8 20.8h-62.4c-11.49 0-20.8-9.31-20.8-20.8z"/><path fill="url(#b)" d="M207.71 104.5h83.2c11.49 0 20.8 9.31 20.8 20.8v62.4c0 11.49-9.31 20.8-20.8 20.8h-83.2z"/><path fill="url(#c)" d="M332.51 208.5h62.4c11.49 0 20.8 9.31 20.8 20.8v52c0 17.23-13.97 31.2-31.2 31.2h-72.8v-83.2c0-11.49 9.31-20.8 20.8-20.8"/><path fill="url(#d)" d="M176.51 104.5c17.23 0 31.2-13.97 31.2-31.2V.5h-104c-57.44 0-104 46.56-104 104v312h104v-104h72.8c17.23 0 31.2-13.97 31.2-31.2v-41.6c0-17.23-13.97-31.2-31.2-31.2h-72.8v-104z"/><path fill="url(#e)" d="M207.71 312.5h83.2c11.49 0 20.8 9.31 20.8 20.8v83.2h-104z"/><path fill="#CE3F3D" d="M519.71 156.5c0-28.719-23.281-52-52-52s-52 23.281-52 52 23.281 52 52 52 52-23.281 52-52" style="fill:#ce3f3d;fill:color(display-p3 .8078 .2471 .2392);fill-opacity:1"/><defs><linearGradient id="a" x1="145.34" x2="602.01" y1="-162.82" y2="293.85" gradientUnits="userSpaceOnUse"><stop stop-color="#F4DA0B" style="stop-color:#f4da0b;stop-color:color(display-p3 .9569 .8549 .0431);stop-opacity:1"/><stop offset=".18" stop-color="#EEB756" style="stop-color:#eeb756;stop-color:color(display-p3 .9333 .7176 .3373);stop-opacity:1"/><stop offset=".4" stop-color="#E26264" style="stop-color:#e26264;stop-color:color(display-p3 .8863 .3843 .3922);stop-opacity:1"/><stop offset=".6" stop-color="#D26058" style="stop-color:#d26058;stop-color:color(display-p3 .8235 .3765 .3451);stop-opacity:1"/><stop offset=".78" stop-color="#745BA2" style="stop-color:#745ba2;stop-color:color(display-p3 .4549 .3569 .6353);stop-opacity:1"/><stop offset="1" stop-color="#5352A0" style="stop-color:#5352a0;stop-color:color(display-p3 .3255 .3216 .6275);stop-opacity:1"/></linearGradient><linearGradient id="b" x1="39.82" x2="496.49" y1="-57.3" y2="399.37" gradientUnits="userSpaceOnUse"><stop stop-color="#F4DA0B" style="stop-color:#f4da0b;stop-color:color(display-p3 .9569 .8549 .0431);stop-opacity:1"/><stop offset=".18" stop-color="#EEB756" style="stop-color:#eeb756;stop-color:color(display-p3 .9333 .7176 .3373);stop-opacity:1"/><stop offset=".4" stop-color="#E26264" style="stop-color:#e26264;stop-color:color(display-p3 .8863 .3843 .3922);stop-opacity:1"/><stop offset=".6" stop-color="#D26058" style="stop-color:#d26058;stop-color:color(display-p3 .8235 .3765 .3451);stop-opacity:1"/><stop offset=".78" stop-color="#745BA2" style="stop-color:#745ba2;stop-color:color(display-p3 .4549 .3569 .6353);stop-opacity:1"/><stop offset="1" stop-color="#5352A0" style="stop-color:#5352a0;stop-color:color(display-p3 .3255 .3216 .6275);stop-opacity:1"/></linearGradient><linearGradient id="c" x1="39.82" x2="496.49" y1="-57.3" y2="399.37" gradientUnits="userSpaceOnUse"><stop stop-color="#F4DA0B" style="stop-color:#f4da0b;stop-color:color(display-p3 .9569 .8549 .0431);stop-opacity:1"/><stop offset=".18" stop-color="#EEB756" style="stop-color:#eeb756;stop-color:color(display-p3 .9333 .7176 .3373);stop-opacity:1"/><stop offset=".4" stop-color="#E26264" style="stop-color:#e26264;stop-color:color(display-p3 .8863 .3843 .3922);stop-opacity:1"/><stop offset=".6" stop-color="#D26058" style="stop-color:#d26058;stop-color:color(display-p3 .8235 .3765 .3451);stop-opacity:1"/><stop offset=".78" stop-color="#745BA2" style="stop-color:#745ba2;stop-color:color(display-p3 .4549 .3569 .6353);stop-opacity:1"/><stop offset="1" stop-color="#5352A0" style="stop-color:#5352a0;stop-color:color(display-p3 .3255 .3216 .6275);stop-opacity:1"/></linearGradient><linearGradient id="d" x1="-61.13" x2="395.53" y1="43.66" y2="500.32" gradientUnits="userSpaceOnUse"><stop stop-color="#F4DA0B" style="stop-color:#f4da0b;stop-color:color(display-p3 .9569 .8549 .0431);stop-opacity:1"/><stop offset=".18" stop-color="#EEB756" style="stop-color:#eeb756;stop-color:color(display-p3 .9333 .7176 .3373);stop-opacity:1"/><stop offset=".4" stop-color="#E26264" style="stop-color:#e26264;stop-color:color(display-p3 .8863 .3843 .3922);stop-opacity:1"/><stop offset=".6" stop-color="#D26058" style="stop-color:#d26058;stop-color:color(display-p3 .8235 .3765 .3451);stop-opacity:1"/><stop offset=".78" stop-color="#745BA2" style="stop-color:#745ba2;stop-color:color(display-p3 .4549 .3569 .6353);stop-opacity:1"/><stop offset="1" stop-color="#5352A0" style="stop-color:#5352a0;stop-color:color(display-p3 .3255 .3216 .6275);stop-opacity:1"/></linearGradient><linearGradient id="e" x1="-64.18" x2="392.49" y1="46.7" y2="503.37" gradientUnits="userSpaceOnUse"><stop stop-color="#F4DA0B" style="stop-color:#f4da0b;stop-color:color(display-p3 .9569 .8549 .0431);stop-opacity:1"/><stop offset=".18" stop-color="#EEB756" style="stop-color:#eeb756;stop-color:color(display-p3 .9333 .7176 .3373);stop-opacity:1"/><stop offset=".4" stop-color="#E26264" style="stop-color:#e26264;stop-color:color(display-p3 .8863 .3843 .3922);stop-opacity:1"/><stop offset=".6" stop-color="#D26058" style="stop-color:#d26058;stop-color:color(display-p3 .8235 .3765 .3451);stop-opacity:1"/><stop offset=".78" stop-color="#745BA2" style="stop-color:#745ba2;stop-color:color(display-p3 .4549 .3569 .6353);stop-opacity:1"/><stop offset="1" stop-color="#5352A0" style="stop-color:#5352a0;stop-color:color(display-p3 .3255 .3216 .6275);stop-opacity:1"/></linearGradient></defs></svg>