<svg width="242" height="51" viewBox="0 0 242 51" fill="none" xmlns="http://www.w3.org/2000/svg">
<path d="M89.9815 22.773H91.819V15.7275L92.3785 15.3465C92.557 15.2025 92.644 15.063 92.644 14.922C92.644 14.5605 92.218 14.1105 90.892 13.0665L90.8005 12.9945L89.854 14.0865H84.1255C83.956 14.0235 83.902 14.01 83.83 13.992L83.788 13.983C83.7055 13.953 83.6275 13.9245 83.5555 13.9005C83.44 13.8615 83.3395 13.827 83.2615 13.7895C83.0485 13.719 82.9165 13.6815 82.696 13.6215C82.5715 13.587 82.42 13.545 82.21 13.4865L82.0555 13.4415V38.733H83.9485V22.17H89.98V22.776L89.9815 22.773ZM89.9815 18.8115V20.634H83.95V18.8115H89.9815ZM83.9515 17.277V15.618H89.983V17.277H83.9515Z" fill="#1E2C58" style="fill:#1E2C58;fill:color(display-p3 0.1176 0.1725 0.3451);fill-opacity:1;"/>
<path d="M103.852 13.0935L103.764 13.0245L102.789 14.0865H96.7285C95.731 13.7085 95.3065 13.5675 94.9165 13.4835L94.7695 13.452V22.692H95.6515C95.3155 23.7465 94.708 25.0995 94.078 26.193H91.657C92.0065 25.962 92.179 25.6755 92.179 25.323C92.179 24.4425 91.0315 23.3925 89.1085 22.5165L89.026 22.479L88.3045 23.304L88.405 23.3835C89.4085 24.1695 89.9635 24.909 90.151 25.7115C90.2005 25.9065 90.2515 26.067 90.3265 26.1945H86.587L86.9845 27.6195H92.3485V29.799H85.513L85.9675 31.3605H92.1835C91.645 33.7635 89.5165 35.4825 86.17 36.213L86.0185 36.246L86.6545 37.5165L86.749 37.4925C90.3325 36.5895 92.479 35.2125 93.487 33.1665C95.1475 34.077 96.4825 35.2035 97.3555 36.432C97.576 36.7065 97.774 36.8895 98.0275 36.8895C98.5405 36.8895 99.2215 36.225 99.2215 35.724C99.2215 34.7205 97.204 33.2625 94.075 32.0055L93.934 31.959C93.9925 31.725 94.036 31.5465 94.078 31.3605H100.876L101.392 30.4275L101.336 30.363C100.792 29.736 100.354 29.292 99.475 28.6125L99.388 28.545L98.1925 29.7975H94.183V27.618H99.9145L100.339 26.769L100.295 26.709C99.8965 26.169 99.4975 25.7475 98.875 25.206L98.533 24.9015L97.471 26.193H95.6485C96.0715 25.707 96.661 24.999 96.94 24.531C97.5325 24.4845 98.116 24.3765 98.116 23.9745C98.116 23.7285 97.897 23.3625 96.283 22.692H96.574V22.1685H102.936V35.5575C102.936 36.087 102.831 36.18 102.231 36.18C101.076 36.18 99.946 36.0945 99.472 36.0165L99.331 35.9925V37.2555L99.433 37.272C101.489 37.611 101.83 37.8615 101.808 38.442L101.803 38.5695L101.931 38.5665C104.07 38.5395 104.829 38.004 104.829 36.5205V15.897L105.441 15.513C105.594 15.399 105.681 15.2535 105.681 15.114C105.681 14.7 105.184 14.1525 103.846 13.0935H103.852ZM102.941 18.8115V20.634H96.58V18.8115H102.941ZM96.58 17.277V15.618H102.941V17.277H96.58Z" fill="#1E2C58" style="fill:#1E2C58;fill:color(display-p3 0.1176 0.1725 0.3451);fill-opacity:1;"/>
<path d="M113.428 17.784C113.513 18.1215 113.665 18.507 114.095 18.507C114.743 18.507 115.454 17.868 115.454 17.286C115.454 16.3065 114.328 15.1245 112.364 14.043L112.277 13.9965L111.497 14.913L111.599 14.9895C112.454 15.63 113.155 16.701 113.425 17.7825L113.428 17.784Z" fill="#1E2C58" style="fill:#1E2C58;fill:color(display-p3 0.1176 0.1725 0.3451);fill-opacity:1;"/>
<path d="M120.511 18.546L120.586 18.477C121.385 17.7645 122.299 16.755 122.879 15.9495C123.767 15.9375 123.956 15.669 123.956 15.444C123.956 15.012 123.227 14.493 121.79 13.902L121.679 13.8555L121.633 13.968C121.025 15.444 120.316 16.773 119.638 17.712L119.57 17.8065L120.511 18.546Z" fill="#1E2C58" style="fill:#1E2C58;fill:color(display-p3 0.1176 0.1725 0.3451);fill-opacity:1;"/>
<path d="M136.961 36.6345C134.41 35.2635 132.272 33.3915 130.609 31.065C132.281 28.1055 133.366 24.462 133.748 20.5245L133.76 20.4345H136.126L136.576 19.5015L136.531 19.443C135.863 18.5535 135.538 18.198 134.59 17.334L134.494 17.247L133.213 18.9H127.298C127.636 17.733 127.909 16.68 128.258 14.967C128.999 14.7885 129.487 14.5875 129.487 14.2065C129.487 13.887 129.149 13.4625 126.526 13.014L126.401 12.993L126.385 13.1175C125.623 18.8325 124.456 22.713 122.605 25.698L122.546 25.794L123.64 26.589L123.712 26.4945C124.481 25.4865 125.038 24.5565 125.635 23.262C126.244 26.16 127.214 28.833 128.453 31.014C126.656 33.7965 124.12 36.243 121.658 37.569L121.532 37.6365L122.368 38.7075L122.455 38.6655C125.11 37.4055 127.753 35.208 129.554 32.766C131.09 34.9545 132.901 36.7425 135.238 38.3805L135.331 38.445L135.401 38.3565C136.003 37.6125 136.399 37.23 136.972 36.8415L137.137 36.729L136.961 36.6345ZM131.737 20.4345C131.438 23.5215 130.654 26.5575 129.463 29.238C128.116 26.8515 127.129 23.997 126.602 20.961C126.65 20.847 126.67 20.7855 126.719 20.6355L126.785 20.4345H131.738H131.737Z" fill="#1E2C58" style="fill:#1E2C58;fill:color(display-p3 0.1176 0.1725 0.3451);fill-opacity:1;"/>
<path d="M122.552 35.7765C122.552 35.2275 121.849 34.644 120.131 33.7755C120.907 32.592 121.546 31.1055 122.083 29.2395H124.294L124.778 28.302L124.723 28.2405C124.007 27.4425 123.596 27.057 122.89 26.5185L122.801 26.4525L121.688 27.678H117.049L117.154 27.4095C117.916 27.261 118.286 27.0465 118.286 26.7525C118.286 26.3475 117.644 26.007 115.997 25.5375L115.892 25.5075L115.774 25.812C115.502 26.5125 115.336 26.943 115.006 27.6795H110.627L111.115 29.241H114.286C113.699 30.4395 112.925 31.7685 112.039 33.0975L111.964 33.21L113.584 34.0665L114.137 33.207L114.332 32.9265C115.64 33.393 116.731 33.864 117.505 34.296C115.904 35.979 113.831 36.9645 110.993 37.3935L110.822 37.419L111.526 38.691L111.61 38.6775C114.949 38.1315 117.464 36.969 119.092 35.2245C119.801 35.7285 120.316 36.1785 120.8 36.711C121.04 36.981 121.207 37.0815 121.414 37.0815C121.882 37.0815 122.552 36.315 122.552 35.778V35.7765ZM114.994 31.7985C115.489 30.96 116.018 29.961 116.347 29.238H119.99C119.608 30.642 119.089 31.9005 118.447 32.9835C117.443 32.577 116.455 32.2365 114.992 31.797L114.994 31.7985Z" fill="#1E2C58" style="fill:#1E2C58;fill:color(display-p3 0.1176 0.1725 0.3451);fill-opacity:1;"/>
<path d="M111.455 25.896C113.39 24.888 115.282 23.442 116.809 21.807V25.581H118.619V22.056C119.78 22.6785 120.742 23.4975 121.348 24.3795C121.571 24.6585 121.739 24.81 121.993 24.81C122.473 24.81 123.16 24.075 123.16 23.562C123.16 22.6245 121.759 21.7575 118.619 20.7495V20.244H123.88L124.391 19.3155L124.345 19.2525C123.791 18.504 123.481 18.165 122.759 17.5275L122.663 17.442L121.63 18.7635H118.618V14.811C119.233 14.559 119.636 14.3175 119.636 13.986C119.636 13.509 118.828 13.2675 116.935 13.1775L116.807 13.1715V18.7635H110.911L111.307 20.2425H115.718C114.202 22.167 112.409 23.793 110.65 24.834L110.53 24.9045L111.368 25.9425L111.457 25.896H111.455Z" fill="#1E2C58" style="fill:#1E2C58;fill:color(display-p3 0.1176 0.1725 0.3451);fill-opacity:1;"/>
<path d="M158.348 16.4625C159.107 16.1715 159.476 15.8835 159.476 15.5805C159.476 14.9355 157.9 14.8005 156.577 14.8005H156.455V25.002H158.348V16.4625Z" fill="#1E2C58" style="fill:#1E2C58;fill:color(display-p3 0.1176 0.1725 0.3451);fill-opacity:1;"/>
<path d="M157.666 26.6235V27.906L157.774 27.918C160.804 28.23 161.123 28.4295 161.078 29.0835L161.069 29.22L161.206 29.2125C163.229 29.1 163.936 28.6125 163.907 27.3585V15.5535C164.657 15.252 164.98 14.9865 164.98 14.6745C164.98 14.3625 164.68 13.911 162.088 13.7565L161.96 13.749V26.2035C161.96 26.6775 161.897 26.7705 161.173 26.7705C160.298 26.7705 159.257 26.7285 157.796 26.6325L157.667 26.6235H157.666Z" fill="#1E2C58" style="fill:#1E2C58;fill:color(display-p3 0.1176 0.1725 0.3451);fill-opacity:1;"/>
<path d="M166.324 36.906C165.668 36.1725 165.151 35.694 164.191 34.9395L164.107 34.8735L162.608 36.3435H154.304V32.9805H163.475L163.93 32.0715L163.877 32.0115C163.057 31.0485 162.646 30.6435 161.879 30.0405L161.792 29.973L160.376 31.446H154.303V29.7225C155.102 29.4 155.431 29.1435 155.431 28.842C155.431 28.5195 155.125 28.083 152.479 28.0065L152.354 28.0035V31.446H143.371L143.827 32.9805H152.353V36.3435H140.48L140.965 37.9605H165.833L166.376 36.9705L166.319 36.906H166.324Z" fill="#1E2C58" style="fill:#1E2C58;fill:color(display-p3 0.1176 0.1725 0.3451);fill-opacity:1;"/>
<path d="M140.845 20.826L141.269 22.3605H144.59C144.43 25.458 143.314 27.6915 141.182 29.184L141.079 29.2575L141.881 30.2955L141.973 30.243C144.895 28.548 146.348 26.043 146.539 22.362H149.824V29.598H151.717V22.362H155.164L155.672 21.378L155.629 21.318C155.087 20.577 154.661 20.1285 153.964 19.458L153.869 19.368L152.668 20.8275H151.718V16.3905H154.612L155.153 15.435L155.104 15.3705C154.52 14.6205 154.156 14.256 153.242 13.5075L153.149 13.4325L151.954 14.856H141.347L141.706 16.3905H144.625V20.8275H140.845V20.826ZM146.573 20.826V16.389H149.825V20.826H146.573Z" fill="#1E2C58" style="fill:#1E2C58;fill:color(display-p3 0.1176 0.1725 0.3451);fill-opacity:1;"/>
<path d="M183.387 30.894L183.304 26.9175V26.7255C188.23 26.247 189.66 25.8495 189.66 24.9645C189.66 24.318 188.64 23.661 187.641 23.661C187.281 23.661 186.9 23.7825 186.477 24.036C185.911 24.387 184.779 24.696 183.277 24.9075L183.195 21.333V21.2475C185.817 20.9745 188.326 20.598 189.19 20.3475C189.852 20.136 190.21 19.923 190.21 19.407C190.21 18.7515 189.202 18.132 188.136 18.132C187.788 18.132 187.299 18.201 186.975 18.3945C186.448 18.696 185.661 18.9765 184.912 19.1265C184.633 19.203 183.781 19.374 183.166 19.4625C183.171 17.9775 183.246 16.929 183.379 16.506C183.459 16.2945 183.496 16.065 183.496 15.804C183.496 14.841 182.32 14.115 180.762 14.115C180.375 14.115 179.95 14.169 179.469 14.283L179.392 14.3025L179.187 15.4005L179.331 15.4035C180.867 15.429 181.111 15.6285 181.083 18.309V19.7145C180.075 19.8285 178.813 19.896 177.6 19.896C175.408 19.896 174.109 19.491 173.118 18.4995L173.01 18.3915L172.27 19.5675L172.344 19.6365C173.899 21.0825 175.434 21.594 178.204 21.594C179.118 21.594 180.045 21.546 181.113 21.441C181.135 22.6875 181.174 23.8545 181.203 24.7155L181.218 25.158C180.174 25.233 178.903 25.2885 178.15 25.2885C176.101 25.2885 175.068 24.963 174.051 24.0015L173.935 23.892L173.326 25.0395L173.38 25.1025C174.498 26.3895 176.197 26.9865 178.726 26.9865C179.56 26.9865 180.531 26.958 181.246 26.913L181.411 30.471V30.5235C180.213 30.3435 179.353 30.267 178.561 30.267C174.661 30.267 172.332 31.6605 172.332 33.9915C172.332 36.15 174.918 37.716 178.479 37.716C179.833 37.716 181.209 37.3605 182.07 36.7875C183.012 36.1305 183.469 35.1 183.469 33.6345C183.469 33.495 183.469 33.3225 183.442 33.1665V32.925C185.529 33.678 187.305 34.5555 188.866 35.607C189.637 36.129 189.724 36.177 190.282 36.177C190.96 36.177 191.367 35.7825 191.367 35.121C191.367 33.603 188.535 32.1045 183.388 30.8985L183.387 30.894ZM178.065 31.8525C179.052 31.8525 180.196 32.01 181.465 32.3205V32.6115C181.465 35.3025 180.921 35.8485 178.23 35.8485C175.789 35.8485 174.085 35.0595 174.085 33.933C174.085 32.6895 175.684 31.8525 178.063 31.8525H178.065Z" fill="#1E2C58" style="fill:#1E2C58;fill:color(display-p3 0.1176 0.1725 0.3451);fill-opacity:1;"/>
<path d="M211.247 18.2955C208.724 18.2955 206.32 18.885 201.355 20.7225C199.12 21.5685 199.09 21.5685 198.59 21.5685C198.091 21.5685 197.675 21.3345 197.372 20.853L197.291 20.7255L196.324 21.693L196.366 21.7725C197.264 23.484 198.053 24.12 199.279 24.12C199.786 24.12 199.972 24.0645 200.522 23.7465C203.42 22.101 204.659 21.4875 206.282 20.8935C208.126 20.2155 209.966 19.827 211.331 19.827C214.468 19.827 216.658 21.906 216.658 24.879C216.658 29.493 213.583 31.728 205.313 33.1245L205.145 33.153L205.9 34.53L205.981 34.5195C215.006 33.3495 219.211 30.3555 219.211 25.0995C219.211 21.156 215.861 18.294 211.249 18.294L211.247 18.2955Z" fill="#1E2C58" style="fill:#1E2C58;fill:color(display-p3 0.1176 0.1725 0.3451);fill-opacity:1;"/>
<path d="M232.253 24.8175L231.437 23.8665L229.507 26.316C229.498 26.1135 229.498 25.977 229.498 25.788C229.498 23.8575 230.195 21.063 231.02 19.689C231.434 19.0275 231.56 18.672 231.56 18.168C231.56 17.1015 230.758 16.1145 229.108 15.1485L229.034 15.105L228.04 15.933L228.137 16.026C228.733 16.593 228.953 17.055 228.953 17.7285C228.953 18.2205 228.889 18.768 228.57 19.9845C227.893 22.8645 227.688 24.228 227.688 25.8165C227.688 27.654 228.072 29.124 228.87 30.3225C229.132 30.636 229.329 30.807 229.624 30.807C230.317 30.807 230.383 29.979 230.404 29.7045C230.512 28.008 231.065 26.5245 232.199 24.894L232.252 24.8175H232.253Z" fill="#1E2C58" style="fill:#1E2C58;fill:color(display-p3 0.1176 0.1725 0.3451);fill-opacity:1;"/>
<path d="M241.022 16.398C240.622 15.1365 239.879 14.4975 238.816 14.4975C238.115 14.4975 237.529 14.7435 236.971 15.2745L236.909 15.333L237.421 16.4595L237.542 16.362C237.79 16.164 238.009 16.086 238.321 16.086C238.597 16.086 238.804 16.2225 238.972 16.902C239.219 17.9475 239.438 21.213 239.438 23.8905C239.438 31.176 237.122 34.8465 231.181 36.984L231.04 37.035L231.773 38.2005L231.859 38.1765C235.339 37.2285 237.446 35.9415 239.131 33.732C240.961 31.3725 241.852 28.305 241.852 24.357C241.852 21.297 241.495 17.874 241.022 16.3965V16.398Z" fill="#1E2C58" style="fill:#1E2C58;fill:color(display-p3 0.1176 0.1725 0.3451);fill-opacity:1;"/>
<path d="M37.9825 0.462006H46.717C48.784 0.462006 50.461 2.1375 50.461 4.206V10.4445C50.461 11.823 49.3435 12.9405 47.965 12.9405H40.4785C39.1 12.9405 37.9825 11.823 37.9825 10.4445V0.462006Z" fill="url(#paint0_linear_21_2055)" style=""/>
<path d="M25.5055 12.939H35.488C36.8665 12.939 37.984 14.0565 37.984 15.435V22.9215C37.984 24.3 36.8665 25.4175 35.488 25.4175H25.5055V12.9405V12.939Z" fill="url(#paint1_linear_21_2055)" style=""/>
<path d="M40.4785 25.4175H47.965C49.3435 25.4175 50.461 26.535 50.461 27.9135V34.152C50.461 36.219 48.7855 37.896 46.717 37.896H37.9825V27.9135C37.9825 26.535 39.1 25.4175 40.4785 25.4175Z" fill="url(#paint2_linear_21_2055)" style=""/>
<path d="M21.7615 12.939C23.8285 12.939 25.5055 11.2635 25.5055 9.19501V0.46051H13.0285C6.13748 0.46051 0.551483 6.04651 0.551483 12.9375V50.37H13.0285V37.893H21.763C23.83 37.893 25.507 36.2175 25.507 34.149V29.1585C25.507 27.0915 23.8315 25.4145 21.763 25.4145H13.0285V12.9375H21.763L21.7615 12.939Z" fill="url(#paint3_linear_21_2055)" style=""/>
<path d="M25.5055 37.8945H35.488C36.8665 37.8945 37.984 39.012 37.984 40.3905V50.373H25.507V37.896L25.5055 37.8945Z" fill="url(#paint4_linear_21_2055)" style=""/>
<path d="M62.938 19.1775C62.938 15.7321 60.1449 12.939 56.6995 12.939C53.254 12.939 50.461 15.7321 50.461 19.1775C50.461 22.6229 53.254 25.416 56.6995 25.416C60.1449 25.416 62.938 22.6229 62.938 19.1775Z" fill="#CE3F3D" style="fill:#CE3F3D;fill:color(display-p3 0.8078 0.2471 0.2392);fill-opacity:1;"/>
<defs>
<linearGradient id="paint0_linear_21_2055" x1="18.0235" y1="-19.1325" x2="72.8125" y2="35.6565" gradientUnits="userSpaceOnUse">
<stop stop-color="#F4DA0B" style="stop-color:#F4DA0B;stop-color:color(display-p3 0.9569 0.8549 0.0431);stop-opacity:1;"/>
<stop offset="0.18" stop-color="#EEB756" style="stop-color:#EEB756;stop-color:color(display-p3 0.9333 0.7176 0.3373);stop-opacity:1;"/>
<stop offset="0.4" stop-color="#E26264" style="stop-color:#E26264;stop-color:color(display-p3 0.8863 0.3843 0.3922);stop-opacity:1;"/>
<stop offset="0.6" stop-color="#D26058" style="stop-color:#D26058;stop-color:color(display-p3 0.8235 0.3765 0.3451);stop-opacity:1;"/>
<stop offset="0.78" stop-color="#745BA2" style="stop-color:#745BA2;stop-color:color(display-p3 0.4549 0.3569 0.6353);stop-opacity:1;"/>
<stop offset="1" stop-color="#5352A0" style="stop-color:#5352A0;stop-color:color(display-p3 0.3255 0.3216 0.6275);stop-opacity:1;"/>
</linearGradient>
<linearGradient id="paint1_linear_21_2055" x1="5.36199" y1="-6.47251" x2="60.1525" y2="48.3165" gradientUnits="userSpaceOnUse">
<stop stop-color="#F4DA0B" style="stop-color:#F4DA0B;stop-color:color(display-p3 0.9569 0.8549 0.0431);stop-opacity:1;"/>
<stop offset="0.18" stop-color="#EEB756" style="stop-color:#EEB756;stop-color:color(display-p3 0.9333 0.7176 0.3373);stop-opacity:1;"/>
<stop offset="0.4" stop-color="#E26264" style="stop-color:#E26264;stop-color:color(display-p3 0.8863 0.3843 0.3922);stop-opacity:1;"/>
<stop offset="0.6" stop-color="#D26058" style="stop-color:#D26058;stop-color:color(display-p3 0.8235 0.3765 0.3451);stop-opacity:1;"/>
<stop offset="0.78" stop-color="#745BA2" style="stop-color:#745BA2;stop-color:color(display-p3 0.4549 0.3569 0.6353);stop-opacity:1;"/>
<stop offset="1" stop-color="#5352A0" style="stop-color:#5352A0;stop-color:color(display-p3 0.3255 0.3216 0.6275);stop-opacity:1;"/>
</linearGradient>
<linearGradient id="paint2_linear_21_2055" x1="5.36198" y1="-6.47249" x2="60.1525" y2="48.3165" gradientUnits="userSpaceOnUse">
<stop stop-color="#F4DA0B" style="stop-color:#F4DA0B;stop-color:color(display-p3 0.9569 0.8549 0.0431);stop-opacity:1;"/>
<stop offset="0.18" stop-color="#EEB756" style="stop-color:#EEB756;stop-color:color(display-p3 0.9333 0.7176 0.3373);stop-opacity:1;"/>
<stop offset="0.4" stop-color="#E26264" style="stop-color:#E26264;stop-color:color(display-p3 0.8863 0.3843 0.3922);stop-opacity:1;"/>
<stop offset="0.6" stop-color="#D26058" style="stop-color:#D26058;stop-color:color(display-p3 0.8235 0.3765 0.3451);stop-opacity:1;"/>
<stop offset="0.78" stop-color="#745BA2" style="stop-color:#745BA2;stop-color:color(display-p3 0.4549 0.3569 0.6353);stop-opacity:1;"/>
<stop offset="1" stop-color="#5352A0" style="stop-color:#5352A0;stop-color:color(display-p3 0.3255 0.3216 0.6275);stop-opacity:1;"/>
</linearGradient>
<linearGradient id="paint3_linear_21_2055" x1="-6.74902" y1="5.64001" x2="48.04" y2="60.429" gradientUnits="userSpaceOnUse">
<stop stop-color="#F4DA0B" style="stop-color:#F4DA0B;stop-color:color(display-p3 0.9569 0.8549 0.0431);stop-opacity:1;"/>
<stop offset="0.18" stop-color="#EEB756" style="stop-color:#EEB756;stop-color:color(display-p3 0.9333 0.7176 0.3373);stop-opacity:1;"/>
<stop offset="0.4" stop-color="#E26264" style="stop-color:#E26264;stop-color:color(display-p3 0.8863 0.3843 0.3922);stop-opacity:1;"/>
<stop offset="0.6" stop-color="#D26058" style="stop-color:#D26058;stop-color:color(display-p3 0.8235 0.3765 0.3451);stop-opacity:1;"/>
<stop offset="0.78" stop-color="#745BA2" style="stop-color:#745BA2;stop-color:color(display-p3 0.4549 0.3569 0.6353);stop-opacity:1;"/>
<stop offset="1" stop-color="#5352A0" style="stop-color:#5352A0;stop-color:color(display-p3 0.3255 0.3216 0.6275);stop-opacity:1;"/>
</linearGradient>
<linearGradient id="paint4_linear_21_2055" x1="-7.11501" y1="6.006" x2="47.674" y2="60.795" gradientUnits="userSpaceOnUse">
<stop stop-color="#F4DA0B" style="stop-color:#F4DA0B;stop-color:color(display-p3 0.9569 0.8549 0.0431);stop-opacity:1;"/>
<stop offset="0.18" stop-color="#EEB756" style="stop-color:#EEB756;stop-color:color(display-p3 0.9333 0.7176 0.3373);stop-opacity:1;"/>
<stop offset="0.4" stop-color="#E26264" style="stop-color:#E26264;stop-color:color(display-p3 0.8863 0.3843 0.3922);stop-opacity:1;"/>
<stop offset="0.6" stop-color="#D26058" style="stop-color:#D26058;stop-color:color(display-p3 0.8235 0.3765 0.3451);stop-opacity:1;"/>
<stop offset="0.78" stop-color="#745BA2" style="stop-color:#745BA2;stop-color:color(display-p3 0.4549 0.3569 0.6353);stop-opacity:1;"/>
<stop offset="1" stop-color="#5352A0" style="stop-color:#5352A0;stop-color:color(display-p3 0.3255 0.3216 0.6275);stop-opacity:1;"/>
</linearGradient>
</defs>
</svg>
