<?xml version="1.0" encoding="utf-8"?>
<!-- Generator: Adobe Illustrator 24.0.0, SVG Export Plug-In . SVG Version: 6.00 Build 0)  -->
<svg version="1.1" id="レイヤー_1" xmlns="http://www.w3.org/2000/svg" xmlns:xlink="http://www.w3.org/1999/xlink" x="0px"
	 y="0px" viewBox="0 0 90 90" style="enable-background:new 0 0 90 90;" xml:space="preserve">
<style type="text/css">
	.st0{fill:#313435;}
</style>
<g>
	<g>
		<path class="st0" d="M47.56,16.24c-1.46-0.61-3.06-0.92-4.82-0.92c-1.69,0-3.08,0.31-4.19,0.92c-1.11,0.61-2.05,1.44-2.81,2.47
			c-0.77,1.03-1.36,2.2-1.78,3.5c-0.42,1.3-0.75,2.6-0.98,3.91l-1.03,6.09H44.8L42.39,46H29.75l-7.7,43.43H4.02L11.72,46H1.26
			l2.41-13.79h10.11l1.15-5.86c0.61-3.29,1.49-6.51,2.64-9.65c1.15-3.14,2.78-5.92,4.88-8.33c2.11-2.41,4.77-4.35,7.98-5.8
			c3.22-1.45,7.16-2.18,11.83-2.18c1.53,0,3.06,0.1,4.6,0.29c1.53,0.19,2.87,0.48,4.02,0.86L47.56,16.24z"/>
	</g>
	<polygon class="st0" points="85.84,46.06 50.52,46.06 53.2,32.33 88.52,32.33 	"/>
	<polygon class="st0" points="81.87,67.44 35.2,67.44 37.79,53.72 84.47,53.72 	"/>
	<polygon class="st0" points="77.21,89.14 31.37,89.14 34.07,75.42 79.91,75.42 	"/>
</g>
</svg>
