<svg xmlns="http://www.w3.org/2000/svg" width="192" height="192" fill="none"><g clip-path="url(#a)"><path fill="url(#b)" d="M115.093 17.723h26.88c6.362 0 11.52 5.158 11.52 11.52v19.2a7.68 7.68 0 0 1-7.68 7.68h-23.04a7.68 7.68 0 0 1-7.68-7.68z"/><path fill="url(#c)" d="M76.693 56.123h30.72a7.68 7.68 0 0 1 7.68 7.68v23.04a7.68 7.68 0 0 1-7.68 7.68h-30.72z"/><path fill="url(#d)" d="M122.773 94.523h23.04a7.68 7.68 0 0 1 7.68 7.68v19.2c0 6.362-5.158 11.52-11.52 11.52h-26.88v-30.72a7.68 7.68 0 0 1 7.68-7.68"/><path fill="url(#e)" d="M65.173 56.123c6.362 0 11.52-5.158 11.52-11.52v-26.88h-38.4c-21.208 0-38.4 17.191-38.4 38.4v115.2h38.4v-38.4h26.88c6.362 0 11.52-5.158 11.52-11.52v-15.36c0-6.362-5.158-11.52-11.52-11.52h-26.88v-38.4z"/><path fill="url(#f)" d="M76.693 132.923h30.72a7.68 7.68 0 0 1 7.68 7.68v30.72h-38.4z"/><path fill="#CE3F3D" d="M191.893 75.323c0-10.604-8.596-19.2-19.2-19.2s-19.2 8.596-19.2 19.2 8.596 19.2 19.2 19.2 19.2-8.596 19.2-19.2" style="fill:#ce3f3d;fill:color(display-p3 .8078 .2471 .2392);fill-opacity:1"/></g><defs><linearGradient id="b" x1="53.664" x2="222.28" y1="-42.58" y2="126.037" gradientUnits="userSpaceOnUse"><stop stop-color="#F4DA0B" style="stop-color:#f4da0b;stop-color:color(display-p3 .9569 .8549 .0431);stop-opacity:1"/><stop offset=".18" stop-color="#EEB756" style="stop-color:#eeb756;stop-color:color(display-p3 .9333 .7176 .3373);stop-opacity:1"/><stop offset=".4" stop-color="#E26264" style="stop-color:#e26264;stop-color:color(display-p3 .8863 .3843 .3922);stop-opacity:1"/><stop offset=".6" stop-color="#D26058" style="stop-color:#d26058;stop-color:color(display-p3 .8235 .3765 .3451);stop-opacity:1"/><stop offset=".78" stop-color="#745BA2" style="stop-color:#745ba2;stop-color:color(display-p3 .4549 .3569 .6353);stop-opacity:1"/><stop offset="1" stop-color="#5352A0" style="stop-color:#5352a0;stop-color:color(display-p3 .3255 .3216 .6275);stop-opacity:1"/></linearGradient><linearGradient id="c" x1="14.703" x2="183.319" y1="-3.618" y2="164.998" gradientUnits="userSpaceOnUse"><stop stop-color="#F4DA0B" style="stop-color:#f4da0b;stop-color:color(display-p3 .9569 .8549 .0431);stop-opacity:1"/><stop offset=".18" stop-color="#EEB756" style="stop-color:#eeb756;stop-color:color(display-p3 .9333 .7176 .3373);stop-opacity:1"/><stop offset=".4" stop-color="#E26264" style="stop-color:#e26264;stop-color:color(display-p3 .8863 .3843 .3922);stop-opacity:1"/><stop offset=".6" stop-color="#D26058" style="stop-color:#d26058;stop-color:color(display-p3 .8235 .3765 .3451);stop-opacity:1"/><stop offset=".78" stop-color="#745BA2" style="stop-color:#745ba2;stop-color:color(display-p3 .4549 .3569 .6353);stop-opacity:1"/><stop offset="1" stop-color="#5352A0" style="stop-color:#5352a0;stop-color:color(display-p3 .3255 .3216 .6275);stop-opacity:1"/></linearGradient><linearGradient id="d" x1="14.703" x2="183.319" y1="-3.618" y2="164.998" gradientUnits="userSpaceOnUse"><stop stop-color="#F4DA0B" style="stop-color:#f4da0b;stop-color:color(display-p3 .9569 .8549 .0431);stop-opacity:1"/><stop offset=".18" stop-color="#EEB756" style="stop-color:#eeb756;stop-color:color(display-p3 .9333 .7176 .3373);stop-opacity:1"/><stop offset=".4" stop-color="#E26264" style="stop-color:#e26264;stop-color:color(display-p3 .8863 .3843 .3922);stop-opacity:1"/><stop offset=".6" stop-color="#D26058" style="stop-color:#d26058;stop-color:color(display-p3 .8235 .3765 .3451);stop-opacity:1"/><stop offset=".78" stop-color="#745BA2" style="stop-color:#745ba2;stop-color:color(display-p3 .4549 .3569 .6353);stop-opacity:1"/><stop offset="1" stop-color="#5352A0" style="stop-color:#5352a0;stop-color:color(display-p3 .3255 .3216 .6275);stop-opacity:1"/></linearGradient><linearGradient id="e" x1="-22.571" x2="146.042" y1="33.659" y2="202.272" gradientUnits="userSpaceOnUse"><stop stop-color="#F4DA0B" style="stop-color:#f4da0b;stop-color:color(display-p3 .9569 .8549 .0431);stop-opacity:1"/><stop offset=".18" stop-color="#EEB756" style="stop-color:#eeb756;stop-color:color(display-p3 .9333 .7176 .3373);stop-opacity:1"/><stop offset=".4" stop-color="#E26264" style="stop-color:#e26264;stop-color:color(display-p3 .8863 .3843 .3922);stop-opacity:1"/><stop offset=".6" stop-color="#D26058" style="stop-color:#d26058;stop-color:color(display-p3 .8235 .3765 .3451);stop-opacity:1"/><stop offset=".78" stop-color="#745BA2" style="stop-color:#745ba2;stop-color:color(display-p3 .4549 .3569 .6353);stop-opacity:1"/><stop offset="1" stop-color="#5352A0" style="stop-color:#5352a0;stop-color:color(display-p3 .3255 .3216 .6275);stop-opacity:1"/></linearGradient><linearGradient id="f" x1="-23.697" x2="144.919" y1="34.782" y2="203.398" gradientUnits="userSpaceOnUse"><stop stop-color="#F4DA0B" style="stop-color:#f4da0b;stop-color:color(display-p3 .9569 .8549 .0431);stop-opacity:1"/><stop offset=".18" stop-color="#EEB756" style="stop-color:#eeb756;stop-color:color(display-p3 .9333 .7176 .3373);stop-opacity:1"/><stop offset=".4" stop-color="#E26264" style="stop-color:#e26264;stop-color:color(display-p3 .8863 .3843 .3922);stop-opacity:1"/><stop offset=".6" stop-color="#D26058" style="stop-color:#d26058;stop-color:color(display-p3 .8235 .3765 .3451);stop-opacity:1"/><stop offset=".78" stop-color="#745BA2" style="stop-color:#745ba2;stop-color:color(display-p3 .4549 .3569 .6353);stop-opacity:1"/><stop offset="1" stop-color="#5352A0" style="stop-color:#5352a0;stop-color:color(display-p3 .3255 .3216 .6275);stop-opacity:1"/></linearGradient><clipPath id="a"><path fill="#fff" d="M0 0h192v192H0z" style="fill:#fff;fill-opacity:1"/></clipPath></defs></svg>