<svg width="52" height="25" viewBox="0 0 52 25" fill="none" xmlns="http://www.w3.org/2000/svg">
<rect width="52" height="25" rx="5" fill="url(#paint0_linear_807_364)" style=""/>
<path d="M18.484 13.534H17.658C16.93 13.534 16.608 13.548 16.216 13.618V12.484C16.636 12.554 16.986 12.568 17.742 12.568H18.148C18.806 12.568 19.198 12.554 19.632 12.512C19.548 13.1 19.534 13.45 19.534 14.094V15.382C19.534 16.04 19.548 16.376 19.632 16.936C18.792 17.426 18.372 17.622 17.728 17.804C17.14 17.972 16.356 18.07 15.642 18.07C14.312 18.07 13.262 17.734 12.45 17.034C11.358 16.068 10.728 14.458 10.728 12.568C10.728 9.194 12.632 7.052 15.614 7.052C16.86 7.052 17.868 7.402 18.61 8.088C19.072 8.522 19.324 8.928 19.632 9.684L18.54 10.048C18.036 8.676 17.098 8.032 15.6 8.032C13.29 8.032 11.876 9.754 11.876 12.568C11.876 14.066 12.282 15.298 13.052 16.124C13.682 16.796 14.55 17.132 15.656 17.132C16.762 17.132 17.658 16.88 18.484 16.348V13.534ZM24.9507 18.098C22.6547 18.098 21.1987 16.572 21.1987 14.15C21.1987 11.728 22.6547 10.188 24.9367 10.188C27.2187 10.188 28.6607 11.728 28.6607 14.136C28.6607 16.53 27.2047 18.098 24.9507 18.098ZM24.9647 11.07C23.2987 11.07 22.2767 12.232 22.2767 14.122C22.2767 16.026 23.2987 17.188 24.9367 17.188C26.5747 17.188 27.5827 16.026 27.5827 14.136C27.5827 12.246 26.5747 11.07 24.9647 11.07ZM30.2987 7.276H31.5587C31.4887 7.78 31.4607 8.158 31.4607 8.858V16.348C31.4607 16.978 31.4887 17.356 31.5587 17.916H30.2987C30.3687 17.412 30.3967 16.978 30.3967 16.348V8.844C30.3967 8.158 30.3687 7.78 30.2987 7.276ZM39.4746 17.916V17.23C39.4746 17.034 39.4886 16.782 39.5166 16.544C38.8586 17.566 37.9486 18.056 36.6746 18.056C34.5186 18.056 33.2026 16.572 33.2026 14.136C33.2026 11.742 34.5466 10.216 36.6466 10.216C37.9206 10.216 38.9006 10.734 39.5166 11.7L39.5026 11.49C39.4606 11.196 39.4606 11.07 39.4606 10.748V8.872C39.4606 8.214 39.4326 7.808 39.3626 7.276H40.5946C40.5246 7.836 40.4966 8.242 40.4966 8.858V16.306C40.4966 17.006 40.5246 17.37 40.5946 17.916H39.4746ZM36.7586 11.126C35.2326 11.126 34.3086 12.246 34.3086 14.108C34.3086 15.032 34.5186 15.83 34.8826 16.292C35.3166 16.838 35.9746 17.132 36.7586 17.132C38.3966 17.132 39.4466 15.942 39.4466 14.094C39.4466 13.17 39.1666 12.358 38.6626 11.868C38.1726 11.392 37.5006 11.126 36.7586 11.126Z" fill="#453B08" style="fill:#453B08;fill:color(display-p3 0.2700 0.2300 0.0300);fill-opacity:1;"/>
<defs>
<linearGradient id="paint0_linear_807_364" x1="0.5" y1="2.8885e-07" x2="52" y2="25" gradientUnits="userSpaceOnUse">
<stop stop-color="#FFE666" style="stop-color:#FFE666;stop-color:color(display-p3 1.0000 0.9000 0.4000);stop-opacity:1;"/>
<stop offset="0.5" stop-color="#FFF2B3" style="stop-color:#FFF2B3;stop-color:color(display-p3 1.0000 0.9504 0.7000);stop-opacity:1;"/>
<stop offset="1" stop-color="#E6BF00" style="stop-color:#E6BF00;stop-color:color(display-p3 0.9000 0.7500 0.0000);stop-opacity:1;"/>
</linearGradient>
</defs>
</svg>
