<svg width="80" height="25" viewBox="0 0 80 25" fill="none" xmlns="http://www.w3.org/2000/svg">
<rect width="80" height="25" rx="5" fill="url(#paint0_linear_807_180)" style=""/>
<path d="M12.394 17.916H11.078C11.162 17.412 11.19 17.006 11.19 16.348V8.83C11.19 8.256 11.162 7.822 11.078 7.234C11.582 7.262 11.974 7.276 12.618 7.276H15.474C17.63 7.276 18.848 8.382 18.848 10.328C18.848 12.386 17.588 13.576 15.404 13.576H12.282V16.334C12.282 17.006 12.31 17.44 12.394 17.916ZM12.282 12.61H15.404C16.888 12.61 17.728 11.812 17.728 10.384C17.728 8.984 16.916 8.242 15.404 8.242H12.282V12.61ZM20.2635 7.276H21.5235C21.4535 7.78 21.4255 8.158 21.4255 8.858V16.348C21.4255 16.978 21.4535 17.356 21.5235 17.916H20.2635C20.3335 17.412 20.3615 16.978 20.3615 16.348V8.844C20.3615 8.158 20.3335 7.78 20.2635 7.276ZM28.5014 17.916V16.922C27.9554 17.412 27.6894 17.594 27.2134 17.776C26.7374 17.958 26.2334 18.056 25.7574 18.056C24.2174 18.056 23.2794 17.258 23.2794 15.928C23.2794 14.808 23.9794 13.996 25.2814 13.632C26.1074 13.394 26.7794 13.31 28.5014 13.268V12.456C28.5014 11.504 27.8994 11.014 26.7374 11.014C25.9674 11.014 25.3934 11.21 25.0014 11.616C24.8194 11.812 24.7074 12.008 24.5674 12.428L23.4754 12.19C23.7274 11.546 23.9094 11.252 24.2594 10.944C24.8334 10.412 25.6734 10.146 26.7234 10.146C28.5714 10.146 29.5234 10.93 29.5234 12.442V16.376C29.5234 17.006 29.5514 17.356 29.6354 17.916H28.5014ZM28.5014 15.004V14.094C26.8354 14.136 26.0374 14.234 25.4074 14.5C24.6934 14.794 24.3434 15.27 24.3434 15.942C24.3434 16.712 24.9174 17.202 25.8274 17.202C26.6394 17.202 27.5214 16.81 28.0674 16.208C28.3894 15.858 28.5014 15.564 28.5014 15.004ZM32.4522 8.284H33.7122C33.6422 8.732 33.6142 9.236 33.6142 9.838V10.37H34.2862C34.9302 10.37 35.2242 10.356 35.7142 10.286V11.35C35.2662 11.28 34.9162 11.266 34.2862 11.266H33.6142V16.138C33.6142 16.544 33.6702 16.754 33.7962 16.88C33.9502 17.034 34.1882 17.118 34.4822 17.118C34.8462 17.118 35.1262 17.034 35.5882 16.754L35.8962 17.734C35.3222 17.972 34.8882 18.056 34.3142 18.056C33.6982 18.056 33.2222 17.902 32.9422 17.622C32.6622 17.342 32.5502 16.936 32.5502 16.278V11.266H31.9902C31.5142 11.266 31.1922 11.294 30.7302 11.35V10.286C31.1222 10.356 31.4022 10.37 31.9902 10.37H32.5502V9.838C32.5502 9.278 32.5222 8.746 32.4522 8.284ZM37.0386 7.276H38.3966V8.522H37.0386V7.276ZM37.0806 10.37H38.3406C38.2706 10.86 38.2426 11.252 38.2426 11.952V16.334C38.2426 16.978 38.2706 17.37 38.3406 17.916H37.0806C37.1506 17.314 37.1786 16.922 37.1786 16.334V11.952C37.1786 11.28 37.1506 10.86 37.0806 10.37ZM41.6485 17.916H40.3885C40.4725 17.384 40.5005 17.006 40.5005 16.334V11.952C40.5005 11.322 40.4725 10.93 40.3885 10.37H41.5505V11.322C41.5505 11.49 41.5505 11.602 41.5085 11.924C42.1665 10.776 43.0765 10.23 44.3365 10.23C45.3445 10.23 46.1285 10.594 46.5765 11.28C46.8425 11.686 46.9685 12.204 46.9685 12.89V16.348C46.9685 17.062 46.9965 17.454 47.0665 17.916H45.8065C45.8765 17.37 45.9045 16.95 45.9045 16.334V13.072C45.9045 11.812 45.3025 11.14 44.1965 11.14C43.4125 11.14 42.7825 11.49 42.1945 12.246C41.8305 12.722 41.6625 13.072 41.5505 13.632V16.334C41.5505 16.95 41.5785 17.37 41.6485 17.916ZM54.5448 17.916V17.006C54.5448 16.852 54.5448 16.754 54.5868 16.39C53.8868 17.538 53.0188 18.056 51.7588 18.056C50.7508 18.056 49.9668 17.692 49.5188 17.02C49.2668 16.614 49.1268 16.068 49.1268 15.396V11.938C49.1268 11.308 49.0988 10.818 49.0288 10.37H50.2888C50.2188 10.86 50.1908 11.336 50.1908 11.952V15.214C50.1908 16.46 50.7928 17.16 51.8848 17.16C52.6828 17.16 53.3408 16.81 53.9008 16.054C54.2648 15.564 54.4188 15.214 54.5448 14.654V11.952C54.5448 11.35 54.5168 10.86 54.4468 10.37H55.6928C55.6228 10.86 55.5948 11.308 55.5948 11.952V16.334C55.5948 16.964 55.6228 17.356 55.7068 17.916H54.5448ZM58.9291 17.916H57.6971C57.7671 17.412 57.7951 16.992 57.7951 16.334V11.952C57.7951 11.252 57.7671 10.874 57.6971 10.37H58.8311V11.14C58.8311 11.21 58.8171 11.378 58.8031 11.644C58.9291 11.406 59.0551 11.238 59.3351 10.944C59.8111 10.468 60.4971 10.216 61.3091 10.216C62.1071 10.216 62.6951 10.454 63.1151 10.93C63.3251 11.154 63.4091 11.322 63.5491 11.742C64.2071 10.664 64.9631 10.216 66.1391 10.216C67.0631 10.216 67.7631 10.51 68.1831 11.07C68.5191 11.518 68.6591 12.064 68.6591 12.89V16.348C68.6591 17.048 68.6871 17.426 68.7571 17.916H67.4971C67.5811 17.398 67.5951 17.076 67.5951 16.334V13.03C67.5951 11.7 67.1051 11.126 65.9851 11.126C65.2851 11.126 64.6271 11.504 64.2211 12.148C63.9551 12.554 63.7591 13.17 63.7591 13.59V16.348C63.7591 17.048 63.7871 17.44 63.8571 17.916H62.5971C62.6671 17.412 62.6951 17.048 62.6951 16.334V13.03C62.6951 11.798 62.1351 11.126 61.1271 11.126C60.3991 11.126 59.7271 11.518 59.2931 12.19C59.0411 12.568 58.8311 13.226 58.8311 13.59V16.334C58.8311 16.978 58.8591 17.356 58.9291 17.916Z" fill="#464653" style="fill:#464653;fill:color(display-p3 0.2750 0.2750 0.3250);fill-opacity:1;"/>
<defs>
<linearGradient id="paint0_linear_807_180" x1="0" y1="0" x2="80" y2="25" gradientUnits="userSpaceOnUse">
<stop stop-color="#F1F1F4" style="stop-color:#F1F1F4;stop-color:color(display-p3 0.9450 0.9450 0.9550);stop-opacity:1;"/>
<stop offset="0.5" stop-color="#F9F9FA" style="stop-color:#F9F9FA;stop-color:color(display-p3 0.9763 0.9763 0.9806);stop-opacity:1;"/>
<stop offset="1" stop-color="#E3E3E8" style="stop-color:#E3E3E8;stop-color:color(display-p3 0.8900 0.8900 0.9100);stop-opacity:1;"/>
</linearGradient>
</defs>
</svg>
