<svg width="58" height="25" viewBox="0 0 58 25" fill="none" xmlns="http://www.w3.org/2000/svg">
<rect width="58" height="25" rx="5" fill="url(#paint0_linear_807_971)" style=""/>
<path d="M18.4 9.866L17.224 10.034C17.112 9.474 17 9.194 16.734 8.872C16.286 8.34 15.572 8.06 14.662 8.06C13.22 8.06 12.212 8.83 12.212 9.964C12.212 10.692 12.604 11.21 13.43 11.546C13.808 11.7 13.822 11.7 15.432 12.05C17.672 12.526 18.568 13.38 18.568 15.004C18.568 16.978 17.21 18.098 14.802 18.098C13.234 18.098 12.072 17.636 11.428 16.768C11.064 16.278 10.91 15.844 10.77 14.92L11.988 14.766C12.03 15.438 12.128 15.774 12.422 16.152C12.884 16.768 13.724 17.118 14.76 17.118C16.426 17.118 17.434 16.334 17.434 15.032C17.434 14.346 17.154 13.828 16.622 13.534C16.16 13.268 16.006 13.226 14.312 12.848C13.43 12.666 12.884 12.47 12.408 12.204C11.54 11.714 11.106 10.972 11.106 9.992C11.106 8.228 12.52 7.094 14.69 7.094C16.076 7.094 17.154 7.542 17.784 8.382C18.106 8.802 18.246 9.152 18.4 9.866ZM20.3452 7.276H21.7032V8.522H20.3452V7.276ZM20.3872 10.37H21.6472C21.5772 10.86 21.5492 11.252 21.5492 11.952V16.334C21.5492 16.978 21.5772 17.37 21.6472 17.916H20.3872C20.4572 17.314 20.4852 16.922 20.4852 16.334V11.952C20.4852 11.28 20.4572 10.86 20.3872 10.37ZM23.6952 7.276H24.9552C24.8852 7.78 24.8572 8.158 24.8572 8.858V16.348C24.8572 16.978 24.8852 17.356 24.9552 17.916H23.6952C23.7652 17.412 23.7932 16.978 23.7932 16.348V8.844C23.7932 8.158 23.7652 7.78 23.6952 7.276ZM26.1091 10.37H27.4251C27.4951 10.734 27.6351 11.196 27.8591 11.742L29.4551 15.858C29.5251 16.04 29.6791 16.488 29.7631 16.768C29.8751 16.418 29.9591 16.18 30.0851 15.872L31.6811 11.742C31.9331 11.112 32.0311 10.762 32.1011 10.37H33.4171C33.2351 10.706 33.1931 10.818 32.7311 11.91L30.7711 16.628C30.4631 17.398 30.4211 17.482 30.3231 17.916H29.2171C29.1331 17.566 29.0351 17.314 28.7551 16.628L26.8091 11.91C26.5431 11.294 26.4031 10.986 26.1091 10.37ZM41.1723 14.304H35.2783C35.3203 15.242 35.4603 15.76 35.8383 16.264C36.2863 16.88 36.9723 17.216 37.8123 17.216C38.9463 17.216 39.7303 16.656 40.1223 15.578L41.1023 15.97C40.8363 16.558 40.6543 16.81 40.3323 17.132C39.6743 17.776 38.8203 18.112 37.7983 18.112C35.6003 18.112 34.2143 16.572 34.2143 14.15C34.2143 11.756 35.5863 10.188 37.6863 10.188C39.4923 10.188 40.7943 11.35 41.0743 13.226C41.0883 13.38 41.1443 13.926 41.1723 14.304ZM35.3203 13.422H40.0523C39.9683 12.638 39.7583 12.134 39.3103 11.7C38.8763 11.28 38.3303 11.07 37.6583 11.07C36.8043 11.07 36.0903 11.504 35.6703 12.288C35.4743 12.638 35.4043 12.89 35.3203 13.422ZM47.6388 10.37L47.3308 11.448C46.7988 11.28 46.5468 11.238 46.1968 11.238C45.4828 11.238 44.8948 11.532 44.4748 12.092C44.1388 12.526 44.0128 12.862 43.9568 13.492V16.348C43.9568 16.978 43.9848 17.37 44.0548 17.916H42.7948C42.8648 17.272 42.8928 16.908 42.8928 16.334V11.952C42.8928 11.252 42.8648 10.874 42.7948 10.37H43.9568V11.168C43.9568 11.28 43.9568 11.49 43.9428 11.588C44.2088 11.154 44.4188 10.93 44.7128 10.734C45.2448 10.384 45.7208 10.244 46.3928 10.244C46.8128 10.244 47.0508 10.272 47.6388 10.37Z" fill="#2F2F37" style="fill:#2F2F37;fill:color(display-p3 0.1830 0.1830 0.2170);fill-opacity:1;"/>
<defs>
<linearGradient id="paint0_linear_807_971" x1="0" y1="0" x2="58" y2="25" gradientUnits="userSpaceOnUse">
<stop stop-color="#E3E3E8" style="stop-color:#E3E3E8;stop-color:color(display-p3 0.8902 0.8902 0.9098);stop-opacity:1;"/>
<stop offset="0.5" stop-color="#F1F1F4" style="stop-color:#F1F1F4;stop-color:color(display-p3 0.9450 0.9450 0.9550);stop-opacity:1;"/>
<stop offset="1" stop-color="#B9B9C6" style="stop-color:#B9B9C6;stop-color:color(display-p3 0.7250 0.7250 0.7750);stop-opacity:1;"/>
</linearGradient>
</defs>
</svg>
